<svg width="48" height="48" viewBox="0 0 48 48" fill="none" xmlns="http://www.w3.org/2000/svg">
<circle cx="24" cy="24" r="23.5" fill="transparent" stroke="#3F51DC"/>
<path d="M38.6 13.505L31.895 35H29.285L23.84 18.605C23.79 18.445 23.74 18.275 23.69 18.095C23.65 17.915 23.605 17.725 23.555 17.525C23.505 17.725 23.455 17.915 23.405 18.095C23.355 18.275 23.305 18.445 23.255 18.605L17.78 35H15.17L8.465 13.505H10.88C11.14 13.505 11.355 13.57 11.525 13.7C11.705 13.83 11.82 13.995 11.87 14.195L16.31 29.135C16.38 29.405 16.445 29.695 16.505 30.005C16.575 30.315 16.64 30.645 16.7 30.995C16.77 30.645 16.84 30.315 16.91 30.005C16.99 29.685 17.075 29.395 17.165 29.135L22.22 14.195C22.28 14.025 22.395 13.87 22.565 13.73C22.745 13.58 22.96 13.505 23.21 13.505H24.05C24.31 13.505 24.52 13.57 24.68 13.7C24.84 13.83 24.96 13.995 25.04 14.195L30.08 29.135C30.17 29.395 30.25 29.675 30.32 29.975C30.4 30.275 30.475 30.59 30.545 30.92C30.595 30.59 30.65 30.275 30.71 29.975C30.77 29.675 30.835 29.395 30.905 29.135L35.36 14.195C35.41 14.015 35.52 13.855 35.69 13.715C35.87 13.575 36.085 13.505 36.335 13.505H38.6Z" fill="#3F51DC"/>
</svg>
