<svg width="216" height="57" viewBox="0 0 216 57" fill="none" xmlns="http://www.w3.org/2000/svg">
<path d="M67.816 34.2H61.864L60.632 37H58.984L64.056 25.8H65.64L70.728 37H69.048L67.816 34.2ZM67.256 32.92L64.84 27.432L62.424 32.92H67.256ZM81.7036 37.128C80.5836 37.128 79.5703 36.8827 78.6636 36.392C77.7676 35.8907 77.0636 35.208 76.5516 34.344C76.0396 33.4693 75.7836 32.488 75.7836 31.4C75.7836 30.312 76.0396 29.336 76.5516 28.472C77.0636 27.5973 77.773 26.9147 78.6796 26.424C79.5863 25.9227 80.5996 25.672 81.7196 25.672C82.5943 25.672 83.3943 25.8213 84.1196 26.12C84.845 26.408 85.4636 26.84 85.9756 27.416L84.9356 28.424C84.093 27.5387 83.0423 27.096 81.7836 27.096C80.9516 27.096 80.1996 27.2827 79.5276 27.656C78.8556 28.0293 78.3276 28.5467 77.9436 29.208C77.5703 29.8587 77.3836 30.5893 77.3836 31.4C77.3836 32.2107 77.5703 32.9467 77.9436 33.608C78.3276 34.2587 78.8556 34.7707 79.5276 35.144C80.1996 35.5173 80.9516 35.704 81.7836 35.704C83.0316 35.704 84.0823 35.256 84.9356 34.36L85.9756 35.368C85.4636 35.944 84.8396 36.3813 84.1036 36.68C83.3783 36.9787 82.5783 37.128 81.7036 37.128ZM91.3068 37.096C90.4641 37.096 89.7068 36.9093 89.0348 36.536C88.3628 36.1627 87.8348 35.6507 87.4508 35C87.0774 34.3387 86.8908 33.592 86.8908 32.76C86.8908 31.928 87.0774 31.1867 87.4508 30.536C87.8348 29.8747 88.3628 29.3627 89.0348 29C89.7068 28.6267 90.4641 28.44 91.3068 28.44C92.1494 28.44 92.9014 28.6267 93.5628 29C94.2348 29.3627 94.7574 29.8747 95.1308 30.536C95.5148 31.1867 95.7068 31.928 95.7068 32.76C95.7068 33.592 95.5148 34.3387 95.1308 35C94.7574 35.6507 94.2348 36.1627 93.5628 36.536C92.9014 36.9093 92.1494 37.096 91.3068 37.096ZM91.3068 35.752C91.8508 35.752 92.3361 35.6293 92.7628 35.384C93.2001 35.128 93.5414 34.776 93.7868 34.328C94.0321 33.8693 94.1548 33.3467 94.1548 32.76C94.1548 32.1733 94.0321 31.656 93.7868 31.208C93.5414 30.7493 93.2001 30.3973 92.7628 30.152C92.3361 29.9067 91.8508 29.784 91.3068 29.784C90.7628 29.784 90.2721 29.9067 89.8348 30.152C89.4081 30.3973 89.0668 30.7493 88.8108 31.208C88.5654 31.656 88.4428 32.1733 88.4428 32.76C88.4428 33.3467 88.5654 33.8693 88.8108 34.328C89.0668 34.776 89.4081 35.128 89.8348 35.384C90.2721 35.6293 90.7628 35.752 91.3068 35.752ZM105.831 25.128V37H104.359V35.656C104.018 36.1253 103.586 36.4827 103.063 36.728C102.54 36.9733 101.964 37.096 101.335 37.096C100.514 37.096 99.7777 36.9147 99.127 36.552C98.4763 36.1893 97.9643 35.6827 97.591 35.032C97.2283 34.3707 97.047 33.6133 97.047 32.76C97.047 31.9067 97.2283 31.1547 97.591 30.504C97.9643 29.8533 98.4763 29.3467 99.127 28.984C99.7777 28.6213 100.514 28.44 101.335 28.44C101.943 28.44 102.503 28.5573 103.015 28.792C103.527 29.016 103.954 29.352 104.295 29.8V25.128H105.831ZM101.463 35.752C101.996 35.752 102.482 35.6293 102.919 35.384C103.356 35.128 103.698 34.776 103.943 34.328C104.188 33.8693 104.311 33.3467 104.311 32.76C104.311 32.1733 104.188 31.656 103.943 31.208C103.698 30.7493 103.356 30.3973 102.919 30.152C102.482 29.9067 101.996 29.784 101.463 29.784C100.919 29.784 100.428 29.9067 99.991 30.152C99.5643 30.3973 99.223 30.7493 98.967 31.208C98.7217 31.656 98.599 32.1733 98.599 32.76C98.599 33.3467 98.7217 33.8693 98.967 34.328C99.223 34.776 99.5643 35.128 99.991 35.384C100.428 35.6293 100.919 35.752 101.463 35.752ZM108.737 28.52H110.273V37H108.737V28.52ZM109.505 26.888C109.207 26.888 108.956 26.792 108.753 26.6C108.561 26.408 108.465 26.1733 108.465 25.896C108.465 25.6187 108.561 25.384 108.753 25.192C108.956 24.9893 109.207 24.888 109.505 24.888C109.804 24.888 110.049 24.984 110.241 25.176C110.444 25.3573 110.545 25.5867 110.545 25.864C110.545 26.152 110.444 26.3973 110.241 26.6C110.049 26.792 109.804 26.888 109.505 26.888ZM117.734 28.44C118.811 28.44 119.665 28.7547 120.294 29.384C120.934 30.0027 121.254 30.9147 121.254 32.12V37H119.718V32.296C119.718 31.4747 119.521 30.856 119.126 30.44C118.731 30.024 118.166 29.816 117.43 29.816C116.598 29.816 115.942 30.0613 115.462 30.552C114.982 31.032 114.742 31.7253 114.742 32.632V37H113.206V28.52H114.678V29.8C114.987 29.3627 115.403 29.0267 115.926 28.792C116.459 28.5573 117.062 28.44 117.734 28.44ZM132.256 28.52V35.848C132.256 37.3307 131.888 38.424 131.152 39.128C130.416 39.8427 129.317 40.2 127.856 40.2C127.056 40.2 126.293 40.088 125.568 39.864C124.842 39.6507 124.256 39.3413 123.808 38.936L124.544 37.752C124.938 38.0933 125.424 38.36 126 38.552C126.586 38.7547 127.189 38.856 127.808 38.856C128.8 38.856 129.53 38.6213 130 38.152C130.48 37.6827 130.72 36.968 130.72 36.008V35.336C130.357 35.7733 129.909 36.104 129.376 36.328C128.853 36.5413 128.282 36.648 127.664 36.648C126.853 36.648 126.117 36.4773 125.456 36.136C124.805 35.784 124.293 35.2987 123.92 34.68C123.546 34.0507 123.36 33.336 123.36 32.536C123.36 31.736 123.546 31.0267 123.92 30.408C124.293 29.7787 124.805 29.2933 125.456 28.952C126.117 28.6107 126.853 28.44 127.664 28.44C128.304 28.44 128.896 28.5573 129.44 28.792C129.994 29.0267 130.448 29.3733 130.8 29.832V28.52H132.256ZM127.84 35.304C128.394 35.304 128.89 35.1867 129.328 34.952C129.776 34.7173 130.122 34.392 130.368 33.976C130.624 33.5493 130.752 33.0693 130.752 32.536C130.752 31.7147 130.48 31.0533 129.936 30.552C129.392 30.04 128.693 29.784 127.84 29.784C126.976 29.784 126.272 30.04 125.728 30.552C125.184 31.0533 124.912 31.7147 124.912 32.536C124.912 33.0693 125.034 33.5493 125.28 33.976C125.536 34.392 125.882 34.7173 126.32 34.952C126.768 35.1867 127.274 35.304 127.84 35.304ZM147.247 31.192C147.898 31.3733 148.41 31.704 148.783 32.184C149.157 32.6533 149.343 33.2507 149.343 33.976C149.343 34.9467 148.975 35.6933 148.239 36.216C147.514 36.7387 146.453 37 145.055 37H139.711V25.8H144.735C146.015 25.8 147.002 26.056 147.695 26.568C148.399 27.08 148.751 27.7893 148.751 28.696C148.751 29.2827 148.613 29.7893 148.335 30.216C148.069 30.6427 147.706 30.968 147.247 31.192ZM141.311 27.096V30.68H144.591C145.413 30.68 146.042 30.5307 146.479 30.232C146.927 29.9227 147.151 29.4747 147.151 28.888C147.151 28.3013 146.927 27.8587 146.479 27.56C146.042 27.2507 145.413 27.096 144.591 27.096H141.311ZM144.991 35.704C145.898 35.704 146.581 35.5547 147.039 35.256C147.498 34.9573 147.727 34.488 147.727 33.848C147.727 32.6 146.815 31.976 144.991 31.976H141.311V35.704H144.991ZM154.685 28.44C155.858 28.44 156.754 28.728 157.373 29.304C158.002 29.88 158.317 30.7387 158.317 31.88V37H156.861V35.88C156.605 36.2747 156.237 36.5787 155.757 36.792C155.287 36.9947 154.727 37.096 154.077 37.096C153.127 37.096 152.365 36.8667 151.789 36.408C151.223 35.9493 150.941 35.3467 150.941 34.6C150.941 33.8533 151.213 33.256 151.757 32.808C152.301 32.3493 153.165 32.12 154.349 32.12H156.781V31.816C156.781 31.1547 156.589 30.648 156.205 30.296C155.821 29.944 155.255 29.768 154.509 29.768C154.007 29.768 153.517 29.8533 153.037 30.024C152.557 30.184 152.151 30.4027 151.821 30.68L151.181 29.528C151.618 29.176 152.141 28.9093 152.749 28.728C153.357 28.536 154.002 28.44 154.685 28.44ZM154.333 35.912C154.919 35.912 155.426 35.784 155.853 35.528C156.279 35.2613 156.589 34.888 156.781 34.408V33.224H154.413C153.111 33.224 152.461 33.6613 152.461 34.536C152.461 34.9627 152.626 35.2987 152.957 35.544C153.287 35.7893 153.746 35.912 154.333 35.912ZM161.159 28.52H162.695V37H161.159V28.52ZM161.927 26.888C161.628 26.888 161.378 26.792 161.175 26.6C160.983 26.408 160.887 26.1733 160.887 25.896C160.887 25.6187 160.983 25.384 161.175 25.192C161.378 24.9893 161.628 24.888 161.927 24.888C162.226 24.888 162.471 24.984 162.663 25.176C162.866 25.3573 162.967 25.5867 162.967 25.864C162.967 26.152 162.866 26.3973 162.663 26.6C162.471 26.792 162.226 26.888 161.927 26.888ZM165.628 25.128H167.164V37H165.628V25.128ZM177.761 32.808C177.761 32.9253 177.75 33.08 177.729 33.272H170.849C170.945 34.0187 171.27 34.6213 171.825 35.08C172.39 35.528 173.089 35.752 173.921 35.752C174.934 35.752 175.75 35.4107 176.369 34.728L177.217 35.72C176.833 36.168 176.353 36.5093 175.777 36.744C175.211 36.9787 174.577 37.096 173.873 37.096C172.977 37.096 172.182 36.9147 171.489 36.552C170.795 36.1787 170.257 35.6613 169.873 35C169.499 34.3387 169.313 33.592 169.313 32.76C169.313 31.9387 169.494 31.1973 169.857 30.536C170.23 29.8747 170.737 29.3627 171.377 29C172.027 28.6267 172.758 28.44 173.569 28.44C174.379 28.44 175.099 28.6267 175.729 29C176.369 29.3627 176.865 29.8747 177.217 30.536C177.579 31.1973 177.761 31.9547 177.761 32.808ZM173.569 29.736C172.833 29.736 172.214 29.96 171.713 30.408C171.222 30.856 170.934 31.4427 170.849 32.168H176.289C176.203 31.4533 175.91 30.872 175.409 30.424C174.918 29.9653 174.305 29.736 173.569 29.736ZM187.241 28.52L183.129 37.848C182.767 38.712 182.34 39.32 181.849 39.672C181.369 40.024 180.788 40.2 180.105 40.2C179.689 40.2 179.284 40.1307 178.889 39.992C178.505 39.864 178.185 39.672 177.929 39.416L178.585 38.264C179.023 38.68 179.529 38.888 180.105 38.888C180.479 38.888 180.788 38.7867 181.033 38.584C181.289 38.392 181.519 38.056 181.721 37.576L181.993 36.984L178.249 28.52H179.849L182.809 35.304L185.737 28.52H187.241Z" fill="#323033"/>
</svg>
