<svg width="48" height="48" fill="none" xmlns="http://www.w3.org/2000/svg"><circle cx="24" cy="24" r="23.5" fill="transparent" stroke="#3F51DC"/><path d="M38.6 13.505 31.895 35h-2.61L23.84 18.605c-.05-.16-.1-.33-.15-.51-.04-.18-.085-.37-.135-.57a22.738 22.738 0 0 1-.3 1.08L17.78 35h-2.61L8.465 13.505h2.415c.26 0 .475.065.645.195.18.13.295.295.345.495l4.44 14.94c.07.27.135.56.195.87.07.31.135.64.195.99.07-.35.14-.68.21-.99.08-.32.165-.61.255-.87l5.055-14.94c.06-.17.175-.325.345-.465a.975.975 0 0 1 .645-.225h.84c.26 0 .47.065.63.195.16.13.28.295.36.495l5.04 14.94c.09.26.17.54.24.84.08.3.155.615.225.945.05-.33.105-.645.165-.945.06-.3.125-.58.195-.84l4.455-14.94c.05-.18.16-.34.33-.48.18-.14.395-.21.645-.21H38.6Z" fill="#3F51DC"/></svg>