<svg width="177" height="44" viewBox="0 0 177 44" fill="none" xmlns="http://www.w3.org/2000/svg">
<path d="M52.848 27.6747H46.608L45.264 30.6667H44.032L49.152 19.4667H50.32L55.44 30.6667H54.192L52.848 27.6747ZM52.416 26.7147L49.728 20.6987L47.04 26.7147H52.416ZM66.3443 30.7627C65.2349 30.7627 64.2323 30.5174 63.3363 30.0267C62.4509 29.5361 61.7523 28.8587 61.2403 27.9947C60.7389 27.1201 60.4883 26.1441 60.4883 25.0667C60.4883 23.9894 60.7389 23.0187 61.2403 22.1547C61.7523 21.2801 62.4563 20.5974 63.3523 20.1067C64.2483 19.6161 65.2509 19.3707 66.3603 19.3707C67.1923 19.3707 67.9603 19.5094 68.6643 19.7867C69.3683 20.0641 69.9656 20.4694 70.4563 21.0027L69.7043 21.7547C68.8296 20.8694 67.7256 20.4267 66.3923 20.4267C65.5069 20.4267 64.7016 20.6294 63.9763 21.0347C63.2509 21.4401 62.6803 21.9947 62.2643 22.6987C61.8589 23.4027 61.6562 24.1921 61.6562 25.0667C61.6562 25.9414 61.8589 26.7307 62.2643 27.4347C62.6803 28.1387 63.2509 28.6934 63.9763 29.0987C64.7016 29.5041 65.5069 29.7067 66.3923 29.7067C67.7363 29.7067 68.8403 29.2587 69.7043 28.3627L70.4563 29.1147C69.9656 29.6481 69.3629 30.0587 68.6483 30.3467C67.9443 30.6241 67.1763 30.7627 66.3443 30.7627ZM75.8053 30.7467C74.9946 30.7467 74.2639 30.5654 73.6133 30.2027C72.9626 29.8294 72.4506 29.3174 72.0773 28.6667C71.7039 28.0161 71.5173 27.2801 71.5173 26.4587C71.5173 25.6374 71.7039 24.9014 72.0773 24.2507C72.4506 23.6001 72.9626 23.0934 73.6133 22.7307C74.2639 22.3681 74.9946 22.1867 75.8053 22.1867C76.6159 22.1867 77.3466 22.3681 77.9973 22.7307C78.6479 23.0934 79.1546 23.6001 79.5173 24.2507C79.8906 24.9014 80.0773 25.6374 80.0773 26.4587C80.0773 27.2801 79.8906 28.0161 79.5173 28.6667C79.1546 29.3174 78.6479 29.8294 77.9973 30.2027C77.3466 30.5654 76.6159 30.7467 75.8053 30.7467ZM75.8053 29.7387C76.4026 29.7387 76.9359 29.6054 77.4053 29.3387C77.8853 29.0614 78.2586 28.6721 78.5253 28.1707C78.7919 27.6694 78.9253 27.0987 78.9253 26.4587C78.9253 25.8187 78.7919 25.2481 78.5253 24.7467C78.2586 24.2454 77.8853 23.8614 77.4053 23.5947C76.9359 23.3174 76.4026 23.1787 75.8053 23.1787C75.2079 23.1787 74.6693 23.3174 74.1893 23.5947C73.7199 23.8614 73.3466 24.2454 73.0693 24.7467C72.8026 25.2481 72.6693 25.8187 72.6693 26.4587C72.6693 27.0987 72.8026 27.6694 73.0693 28.1707C73.3466 28.6721 73.7199 29.0614 74.1893 29.3387C74.6693 29.6054 75.2079 29.7387 75.8053 29.7387ZM90.0765 18.7947V30.6667H88.9885V29.0027C88.6472 29.5681 88.1938 30.0001 87.6285 30.2987C87.0738 30.5974 86.4445 30.7467 85.7405 30.7467C84.9512 30.7467 84.2365 30.5654 83.5965 30.2027C82.9565 29.8401 82.4552 29.3334 82.0925 28.6827C81.7298 28.0321 81.5485 27.2907 81.5485 26.4587C81.5485 25.6267 81.7298 24.8854 82.0925 24.2347C82.4552 23.5841 82.9565 23.0827 83.5965 22.7307C84.2365 22.3681 84.9512 22.1867 85.7405 22.1867C86.4232 22.1867 87.0365 22.3307 87.5805 22.6187C88.1352 22.8961 88.5885 23.3067 88.9405 23.8507V18.7947H90.0765ZM85.8365 29.7387C86.4232 29.7387 86.9512 29.6054 87.4205 29.3387C87.9005 29.0614 88.2738 28.6721 88.5405 28.1707C88.8178 27.6694 88.9565 27.0987 88.9565 26.4587C88.9565 25.8187 88.8178 25.2481 88.5405 24.7467C88.2738 24.2454 87.9005 23.8614 87.4205 23.5947C86.9512 23.3174 86.4232 23.1787 85.8365 23.1787C85.2392 23.1787 84.7005 23.3174 84.2205 23.5947C83.7512 23.8614 83.3778 24.2454 83.1005 24.7467C82.8338 25.2481 82.7005 25.8187 82.7005 26.4587C82.7005 27.0987 82.8338 27.6694 83.1005 28.1707C83.3778 28.6721 83.7512 29.0614 84.2205 29.3387C84.7005 29.6054 85.2392 29.7387 85.8365 29.7387ZM93.2403 22.2507H94.3763V30.6667H93.2403V22.2507ZM93.8163 20.4107C93.5816 20.4107 93.3843 20.3307 93.2243 20.1707C93.0643 20.0107 92.9843 19.8187 92.9843 19.5947C92.9843 19.3814 93.0643 19.1947 93.2243 19.0347C93.3843 18.8747 93.5816 18.7947 93.8163 18.7947C94.0509 18.7947 94.2483 18.8747 94.4083 19.0347C94.5683 19.1841 94.6483 19.3654 94.6483 19.5787C94.6483 19.8134 94.5683 20.0107 94.4083 20.1707C94.2483 20.3307 94.0509 20.4107 93.8163 20.4107ZM101.825 22.1867C102.881 22.1867 103.718 22.4961 104.337 23.1147C104.966 23.7227 105.281 24.6134 105.281 25.7867V30.6667H104.145V25.8987C104.145 25.0241 103.926 24.3574 103.489 23.8987C103.052 23.4401 102.428 23.2107 101.617 23.2107C100.71 23.2107 99.9905 23.4827 99.4571 24.0267C98.9345 24.5601 98.6731 25.3014 98.6731 26.2507V30.6667H97.5371V22.2507H98.6251V23.8027C98.9345 23.2907 99.3611 22.8961 99.9051 22.6187C100.46 22.3307 101.1 22.1867 101.825 22.1867ZM116.189 22.2507V29.6427C116.189 31.0721 115.837 32.1281 115.133 32.8107C114.439 33.5041 113.389 33.8507 111.981 33.8507C111.202 33.8507 110.461 33.7334 109.757 33.4987C109.063 33.2747 108.498 32.9601 108.061 32.5547L108.637 31.6907C109.042 32.0534 109.533 32.3361 110.109 32.5387C110.695 32.7414 111.309 32.8427 111.949 32.8427C113.015 32.8427 113.799 32.5921 114.301 32.0907C114.802 31.6001 115.053 30.8321 115.053 29.7867V28.7147C114.701 29.2481 114.237 29.6534 113.661 29.9307C113.095 30.2081 112.466 30.3467 111.773 30.3467C110.983 30.3467 110.263 30.1761 109.613 29.8347C108.973 29.4827 108.466 28.9974 108.093 28.3787C107.73 27.7494 107.549 27.0401 107.549 26.2507C107.549 25.4614 107.73 24.7574 108.093 24.1387C108.466 23.5201 108.973 23.0401 109.613 22.6987C110.253 22.3574 110.973 22.1867 111.773 22.1867C112.487 22.1867 113.133 22.3307 113.709 22.6187C114.285 22.9067 114.749 23.3227 115.101 23.8667V22.2507H116.189ZM111.885 29.3387C112.493 29.3387 113.042 29.2107 113.533 28.9547C114.023 28.6881 114.402 28.3201 114.669 27.8507C114.946 27.3814 115.085 26.8481 115.085 26.2507C115.085 25.6534 114.946 25.1254 114.669 24.6667C114.402 24.1974 114.023 23.8347 113.533 23.5787C113.053 23.3121 112.503 23.1787 111.885 23.1787C111.277 23.1787 110.727 23.3067 110.237 23.5627C109.757 23.8187 109.378 24.1814 109.101 24.6507C108.834 25.1201 108.701 25.6534 108.701 26.2507C108.701 26.8481 108.834 27.3814 109.101 27.8507C109.378 28.3201 109.757 28.6881 110.237 28.9547C110.727 29.2107 111.277 29.3387 111.885 29.3387ZM130.849 24.8907C131.585 25.0507 132.15 25.3707 132.545 25.8507C132.95 26.3201 133.153 26.9281 133.153 27.6747C133.153 28.6347 132.795 29.3761 132.081 29.8987C131.377 30.4107 130.331 30.6667 128.945 30.6667H123.793V19.4667H128.625C129.873 19.4667 130.838 19.7174 131.521 20.2187C132.214 20.7201 132.561 21.4294 132.561 22.3467C132.561 22.9654 132.406 23.4934 132.097 23.9307C131.798 24.3574 131.382 24.6774 130.849 24.8907ZM124.977 20.4427V24.5067H128.545C129.451 24.5067 130.15 24.3361 130.641 23.9947C131.131 23.6427 131.377 23.1361 131.377 22.4747C131.377 21.8134 131.131 21.3121 130.641 20.9707C130.15 20.6187 129.451 20.4427 128.545 20.4427H124.977ZM128.929 29.6907C129.931 29.6907 130.689 29.5201 131.201 29.1787C131.713 28.8374 131.969 28.3041 131.969 27.5787C131.969 26.1814 130.955 25.4827 128.929 25.4827H124.977V29.6907H128.929ZM138.559 22.1867C139.658 22.1867 140.501 22.4641 141.087 23.0187C141.674 23.5627 141.967 24.3734 141.967 25.4507V30.6667H140.879V29.3547C140.623 29.7921 140.245 30.1334 139.743 30.3787C139.253 30.6241 138.666 30.7467 137.983 30.7467C137.045 30.7467 136.298 30.5227 135.743 30.0747C135.189 29.6267 134.911 29.0347 134.911 28.2987C134.911 27.5841 135.167 27.0081 135.679 26.5707C136.202 26.1334 137.029 25.9147 138.159 25.9147H140.831V25.4027C140.831 24.6774 140.629 24.1281 140.223 23.7547C139.818 23.3707 139.226 23.1787 138.447 23.1787C137.914 23.1787 137.402 23.2694 136.911 23.4507C136.421 23.6214 135.999 23.8614 135.647 24.1707L135.135 23.3227C135.562 22.9601 136.074 22.6827 136.671 22.4907C137.269 22.2881 137.898 22.1867 138.559 22.1867ZM138.159 29.8507C138.799 29.8507 139.349 29.7067 139.807 29.4187C140.266 29.1201 140.607 28.6934 140.831 28.1387V26.7627H138.191C136.751 26.7627 136.031 27.2641 136.031 28.2667C136.031 28.7574 136.218 29.1467 136.591 29.4347C136.965 29.7121 137.487 29.8507 138.159 29.8507ZM145.053 22.2507H146.189V30.6667H145.053V22.2507ZM145.629 20.4107C145.394 20.4107 145.197 20.3307 145.037 20.1707C144.877 20.0107 144.797 19.8187 144.797 19.5947C144.797 19.3814 144.877 19.1947 145.037 19.0347C145.197 18.8747 145.394 18.7947 145.629 18.7947C145.863 18.7947 146.061 18.8747 146.221 19.0347C146.381 19.1841 146.461 19.3654 146.461 19.5787C146.461 19.8134 146.381 20.0107 146.221 20.1707C146.061 20.3307 145.863 20.4107 145.629 20.4107ZM149.59 19.4667H150.774V30.6667H149.59V19.4667ZM161.506 26.8107H154.466C154.53 27.6854 154.866 28.3947 155.474 28.9387C156.082 29.4721 156.85 29.7387 157.778 29.7387C158.3 29.7387 158.78 29.6481 159.218 29.4667C159.655 29.2747 160.034 28.9974 160.354 28.6347L160.994 29.3707C160.62 29.8187 160.151 30.1601 159.586 30.3947C159.031 30.6294 158.418 30.7467 157.746 30.7467C156.882 30.7467 156.114 30.5654 155.442 30.2027C154.78 29.8294 154.263 29.3174 153.89 28.6667C153.516 28.0161 153.33 27.2801 153.33 26.4587C153.33 25.6374 153.506 24.9014 153.858 24.2507C154.22 23.6001 154.711 23.0934 155.33 22.7307C155.959 22.3681 156.663 22.1867 157.442 22.1867C158.22 22.1867 158.919 22.3681 159.538 22.7307C160.156 23.0934 160.642 23.6001 160.994 24.2507C161.346 24.8907 161.522 25.6267 161.522 26.4587L161.506 26.8107ZM157.442 23.1627C156.631 23.1627 155.948 23.4241 155.394 23.9467C154.85 24.4587 154.54 25.1307 154.466 25.9627H160.434C160.359 25.1307 160.044 24.4587 159.49 23.9467C158.946 23.4241 158.263 23.1627 157.442 23.1627ZM170.75 22.2507L166.542 31.6747C166.2 32.4641 165.806 33.0241 165.358 33.3547C164.91 33.6854 164.371 33.8507 163.742 33.8507C163.336 33.8507 162.958 33.7867 162.606 33.6587C162.254 33.5307 161.95 33.3387 161.694 33.0827L162.222 32.2347C162.648 32.6614 163.16 32.8747 163.758 32.8747C164.142 32.8747 164.467 32.7681 164.734 32.5547C165.011 32.3414 165.267 31.9787 165.502 31.4667L165.87 30.6507L162.11 22.2507H163.294L166.462 29.4027L169.63 22.2507H170.75Z" fill="white"/>
<path d="M17.501 28.6566V34.1582L29.9998 28.5853V23.0845L17.501 28.6566Z" fill="white"/>
<path d="M23.096 18.0312L29.2631 15.2804L17.501 10.0352V15.5366L23.096 18.0312Z" fill="white"/>
<path d="M12.6436 19.6738V25.177L17.501 27.3424V21.8416L12.6436 19.6738Z" fill="white"/>
<path d="M29.9998 16.2666L17.501 21.8418V27.3425L29.9998 21.7696V16.2666Z" fill="white"/>
<path d="M5.74414 15.2772L11.8743 18.0441L17.5008 15.5366V10.0352L5.74414 15.2772Z" fill="white"/>
<path d="M11.1692 25.8344V19.0138L5 16.2639V28.585L17.5009 34.1579V28.6563L11.1692 25.8344Z" fill="white"/>
</svg>
