<svg width="177" height="44" fill="none" xmlns="http://www.w3.org/2000/svg"><path d="M52.848 27.675h-6.24l-1.344 2.992h-1.232l5.12-11.2h1.168l5.12 11.2h-1.248l-1.344-2.992Zm-.432-.96-2.688-6.016-2.688 6.016h5.376Zm13.928 4.048c-1.11 0-2.112-.246-3.008-.736a5.48 5.48 0 0 1-2.096-2.032c-.501-.875-.752-1.85-.752-2.928 0-1.078.25-2.048.752-2.912a5.416 5.416 0 0 1 2.112-2.048c.896-.49 1.899-.736 3.008-.736.832 0 1.6.138 2.304.416a4.777 4.777 0 0 1 1.792 1.216l-.752.752c-.874-.886-1.978-1.328-3.312-1.328-.885 0-1.69.202-2.416.608a4.501 4.501 0 0 0-1.712 1.664c-.405.704-.608 1.493-.608 2.368 0 .874.203 1.664.608 2.368a4.5 4.5 0 0 0 1.712 1.664c.726.405 1.53.608 2.416.608 1.344 0 2.448-.448 3.312-1.344l.752.752a4.912 4.912 0 0 1-1.808 1.232 6.23 6.23 0 0 1-2.304.416Zm9.461-.016c-.81 0-1.541-.182-2.192-.544a4.083 4.083 0 0 1-1.536-1.536c-.373-.65-.56-1.387-.56-2.208 0-.822.187-1.558.56-2.208a3.969 3.969 0 0 1 1.536-1.52c.65-.363 1.382-.544 2.192-.544.81 0 1.542.181 2.192.544a3.86 3.86 0 0 1 1.52 1.52c.374.65.56 1.386.56 2.208 0 .821-.186 1.557-.56 2.208a3.969 3.969 0 0 1-1.52 1.536c-.65.362-1.381.544-2.192.544Zm0-1.008c.598 0 1.13-.134 1.6-.4.48-.278.854-.667 1.12-1.168.267-.502.4-1.072.4-1.712 0-.64-.133-1.21-.4-1.712a2.778 2.778 0 0 0-1.12-1.152 3.086 3.086 0 0 0-1.6-.416c-.597 0-1.136.138-1.616.416-.47.266-.842.65-1.12 1.152-.266.501-.4 1.072-.4 1.712 0 .64.134 1.21.4 1.712.278.501.65.89 1.12 1.168.48.266 1.019.4 1.616.4Zm14.271-10.944v11.872H88.99v-1.664a3.449 3.449 0 0 1-1.36 1.296c-.555.298-1.184.448-1.889.448-.789 0-1.503-.182-2.143-.544a3.888 3.888 0 0 1-1.504-1.52c-.363-.65-.544-1.392-.544-2.224 0-.832.18-1.574.543-2.224a3.78 3.78 0 0 1 1.505-1.504 4.273 4.273 0 0 1 2.144-.544c.682 0 1.296.144 1.84.432a3.426 3.426 0 0 1 1.36 1.232v-5.056h1.135Zm-4.24 10.944c.587 0 1.115-.134 1.585-.4.48-.278.853-.667 1.12-1.168.277-.502.416-1.072.416-1.712 0-.64-.14-1.21-.416-1.712a2.778 2.778 0 0 0-1.12-1.152 3.055 3.055 0 0 0-1.585-.416c-.597 0-1.135.138-1.615.416-.47.266-.843.65-1.12 1.152-.267.501-.4 1.072-.4 1.712 0 .64.133 1.21.4 1.712.277.501.65.89 1.12 1.168.48.266 1.018.4 1.615.4Zm7.404-7.488h1.136v8.416H93.24V22.25Zm.576-1.84a.804.804 0 0 1-.592-.24.786.786 0 0 1-.24-.576c0-.214.08-.4.24-.56.16-.16.358-.24.592-.24.235 0 .432.08.592.24.16.15.24.33.24.544 0 .234-.08.432-.24.592a.804.804 0 0 1-.592.24Zm8.009 1.776c1.056 0 1.893.31 2.512.928.629.608.944 1.498.944 2.672v4.88h-1.136v-4.768c0-.875-.219-1.542-.656-2-.437-.459-1.061-.688-1.872-.688-.907 0-1.627.272-2.16.816-.522.533-.784 1.274-.784 2.224v4.416h-1.136V22.25h1.088v1.552c.31-.512.736-.907 1.28-1.184.555-.288 1.195-.432 1.92-.432Zm14.364.064v7.392c0 1.43-.352 2.485-1.056 3.168-.694.693-1.744 1.04-3.152 1.04-.779 0-1.52-.118-2.224-.352-.694-.224-1.259-.539-1.696-.944l.576-.864c.405.362.896.645 1.472.848.586.202 1.2.304 1.84.304 1.066 0 1.85-.25 2.352-.752.501-.49.752-1.259.752-2.304v-1.072a3.41 3.41 0 0 1-1.392 1.216 4.23 4.23 0 0 1-1.888.416c-.79 0-1.51-.17-2.16-.512a3.985 3.985 0 0 1-1.52-1.456c-.363-.63-.544-1.339-.544-2.128 0-.79.181-1.494.544-2.112a3.87 3.87 0 0 1 1.52-1.44c.64-.342 1.36-.512 2.16-.512.714 0 1.36.144 1.936.432.576.288 1.04.704 1.392 1.248V22.25h1.088Zm-4.304 7.088a3.51 3.51 0 0 0 1.648-.384c.49-.267.869-.635 1.136-1.104.277-.47.416-1.003.416-1.6 0-.598-.139-1.126-.416-1.584a2.733 2.733 0 0 0-1.136-1.088c-.48-.267-1.03-.4-1.648-.4-.608 0-1.158.128-1.648.384-.48.256-.859.618-1.136 1.088-.267.47-.4 1.002-.4 1.6 0 .597.133 1.13.4 1.6.277.47.656.837 1.136 1.104.49.256 1.04.384 1.648.384Zm18.964-4.448c.736.16 1.301.48 1.696.96.405.47.608 1.077.608 1.824 0 .96-.358 1.701-1.072 2.224-.704.512-1.75.768-3.136.768h-5.152v-11.2h4.832c1.248 0 2.213.25 2.896.752.693.501 1.04 1.21 1.04 2.128 0 .618-.155 1.146-.464 1.584-.299.426-.715.746-1.248.96Zm-5.872-4.448v4.064h3.568c.906 0 1.605-.17 2.096-.512.49-.352.736-.859.736-1.52 0-.662-.246-1.163-.736-1.504-.491-.352-1.19-.528-2.096-.528h-3.568Zm3.952 9.248c1.002 0 1.76-.17 2.272-.512.512-.342.768-.875.768-1.6 0-1.398-1.014-2.096-3.04-2.096h-3.952v4.208h3.952Zm9.63-7.504c1.099 0 1.942.277 2.528.832.587.544.88 1.354.88 2.432v5.216h-1.088v-1.312c-.256.437-.634.778-1.136 1.024-.49.245-1.077.368-1.76.368-.938 0-1.685-.224-2.24-.672-.554-.448-.832-1.04-.832-1.776 0-.715.256-1.29.768-1.728.523-.438 1.35-.656 2.48-.656h2.672v-.512c0-.726-.202-1.275-.608-1.648-.405-.384-.997-.576-1.776-.576a4.4 4.4 0 0 0-1.536.272c-.49.17-.912.41-1.264.72l-.512-.848c.427-.363.939-.64 1.536-.832a5.842 5.842 0 0 1 1.888-.304Zm-.4 7.664c.64 0 1.19-.144 1.648-.432.459-.299.8-.726 1.024-1.28v-1.376h-2.64c-1.44 0-2.16.501-2.16 1.504 0 .49.187.88.56 1.168.374.277.896.416 1.568.416Zm6.894-7.6h1.136v8.416h-1.136V22.25Zm.576-1.84a.804.804 0 0 1-.592-.24.786.786 0 0 1-.24-.576c0-.214.08-.4.24-.56.16-.16.357-.24.592-.24.234 0 .432.08.592.24.16.15.24.33.24.544 0 .234-.08.432-.24.592a.805.805 0 0 1-.592.24Zm3.961-.944h1.184v11.2h-1.184v-11.2Zm11.916 7.344h-7.04c.064.874.4 1.584 1.008 2.128.608.533 1.376.8 2.304.8.522 0 1.002-.09 1.44-.272.437-.192.816-.47 1.136-.832l.64.736c-.374.448-.843.79-1.408 1.024a4.677 4.677 0 0 1-1.84.352c-.864 0-1.632-.182-2.304-.544a4.044 4.044 0 0 1-1.552-1.536c-.374-.65-.56-1.387-.56-2.208 0-.822.176-1.558.528-2.208a3.95 3.95 0 0 1 1.472-1.52c.629-.363 1.333-.544 2.112-.544.778 0 1.477.181 2.096.544.618.362 1.104.87 1.456 1.52.352.64.528 1.376.528 2.208l-.016.352Zm-4.064-3.648c-.811 0-1.494.261-2.048.784-.544.512-.854 1.184-.928 2.016h5.968c-.075-.832-.39-1.504-.944-2.016-.544-.523-1.227-.784-2.048-.784Zm13.308-.912-4.208 9.424c-.342.79-.736 1.35-1.184 1.68-.448.33-.987.496-1.616.496-.406 0-.784-.064-1.136-.192a2.462 2.462 0 0 1-.912-.576l.528-.848c.426.426.938.64 1.536.64.384 0 .709-.107.976-.32.277-.214.533-.576.768-1.088l.368-.816-3.76-8.4h1.184l3.168 7.152 3.168-7.152h1.12ZM17.501 28.657v5.501L30 28.585v-5.5L17.5 28.656ZM23.096 18.031l6.167-2.75-11.762-5.246v5.502l5.595 2.494ZM12.644 19.674v5.503l4.857 2.165v-5.5l-4.857-2.168Z" fill="#fff"/><path d="M30 16.267 17.5 21.842v5.5L30 21.77v-5.503ZM5.744 15.277l6.13 2.767 5.627-2.507v-5.502L5.744 15.277ZM11.17 25.834v-6.82L5 16.264v12.321l12.5 5.573v-5.502l-6.33-2.822Z" fill="#fff"/></svg>