<svg width="176" height="44" viewBox="0 0 176 44" fill="none" xmlns="http://www.w3.org/2000/svg">
<path d="M52.848 27.6746H46.608L45.264 30.6666H44.032L49.152 19.4666H50.32L55.44 30.6666H54.192L52.848 27.6746ZM52.416 26.7146L49.728 20.6986L47.04 26.7146H52.416ZM66.3443 30.7626C65.2349 30.7626 64.2323 30.5173 63.3363 30.0266C62.4509 29.536 61.7523 28.8586 61.2403 27.9946C60.7389 27.12 60.4883 26.144 60.4883 25.0666C60.4883 23.9893 60.7389 23.0186 61.2403 22.1546C61.7523 21.28 62.4563 20.5973 63.3523 20.1066C64.2483 19.616 65.2509 19.3706 66.3603 19.3706C67.1923 19.3706 67.9603 19.5093 68.6643 19.7866C69.3683 20.064 69.9656 20.4693 70.4563 21.0026L69.7043 21.7546C68.8296 20.8693 67.7256 20.4266 66.3923 20.4266C65.5069 20.4266 64.7016 20.6293 63.9763 21.0346C63.2509 21.44 62.6803 21.9946 62.2643 22.6986C61.8589 23.4026 61.6562 24.192 61.6562 25.0666C61.6562 25.9413 61.8589 26.7306 62.2643 27.4346C62.6803 28.1386 63.2509 28.6933 63.9763 29.0986C64.7016 29.504 65.5069 29.7066 66.3923 29.7066C67.7363 29.7066 68.8403 29.2586 69.7043 28.3626L70.4563 29.1146C69.9656 29.648 69.3629 30.0586 68.6483 30.3466C67.9443 30.624 67.1763 30.7626 66.3443 30.7626ZM75.8053 30.7466C74.9946 30.7466 74.2639 30.5653 73.6133 30.2026C72.9626 29.8293 72.4506 29.3173 72.0773 28.6666C71.7039 28.016 71.5173 27.28 71.5173 26.4586C71.5173 25.6373 71.7039 24.9013 72.0773 24.2506C72.4506 23.6 72.9626 23.0933 73.6133 22.7306C74.2639 22.368 74.9946 22.1866 75.8053 22.1866C76.6159 22.1866 77.3466 22.368 77.9973 22.7306C78.6479 23.0933 79.1546 23.6 79.5173 24.2506C79.8906 24.9013 80.0773 25.6373 80.0773 26.4586C80.0773 27.28 79.8906 28.016 79.5173 28.6666C79.1546 29.3173 78.6479 29.8293 77.9973 30.2026C77.3466 30.5653 76.6159 30.7466 75.8053 30.7466ZM75.8053 29.7386C76.4026 29.7386 76.9359 29.6053 77.4053 29.3386C77.8853 29.0613 78.2586 28.672 78.5253 28.1706C78.7919 27.6693 78.9253 27.0986 78.9253 26.4586C78.9253 25.8186 78.7919 25.248 78.5253 24.7466C78.2586 24.2453 77.8853 23.8613 77.4053 23.5946C76.9359 23.3173 76.4026 23.1786 75.8053 23.1786C75.2079 23.1786 74.6693 23.3173 74.1893 23.5946C73.7199 23.8613 73.3466 24.2453 73.0693 24.7466C72.8026 25.248 72.6693 25.8186 72.6693 26.4586C72.6693 27.0986 72.8026 27.6693 73.0693 28.1706C73.3466 28.672 73.7199 29.0613 74.1893 29.3386C74.6693 29.6053 75.2079 29.7386 75.8053 29.7386ZM90.0765 18.7946V30.6666H88.9885V29.0026C88.6472 29.568 88.1938 30 87.6285 30.2986C87.0738 30.5973 86.4445 30.7466 85.7405 30.7466C84.9512 30.7466 84.2365 30.5653 83.5965 30.2026C82.9565 29.84 82.4552 29.3333 82.0925 28.6826C81.7298 28.032 81.5485 27.2906 81.5485 26.4586C81.5485 25.6266 81.7298 24.8853 82.0925 24.2346C82.4552 23.584 82.9565 23.0826 83.5965 22.7306C84.2365 22.368 84.9512 22.1866 85.7405 22.1866C86.4232 22.1866 87.0365 22.3306 87.5805 22.6186C88.1352 22.896 88.5885 23.3066 88.9405 23.8506V18.7946H90.0765ZM85.8365 29.7386C86.4232 29.7386 86.9512 29.6053 87.4205 29.3386C87.9005 29.0613 88.2738 28.672 88.5405 28.1706C88.8178 27.6693 88.9565 27.0986 88.9565 26.4586C88.9565 25.8186 88.8178 25.248 88.5405 24.7466C88.2738 24.2453 87.9005 23.8613 87.4205 23.5946C86.9512 23.3173 86.4232 23.1786 85.8365 23.1786C85.2392 23.1786 84.7005 23.3173 84.2205 23.5946C83.7512 23.8613 83.3778 24.2453 83.1005 24.7466C82.8338 25.248 82.7005 25.8186 82.7005 26.4586C82.7005 27.0986 82.8338 27.6693 83.1005 28.1706C83.3778 28.672 83.7512 29.0613 84.2205 29.3386C84.7005 29.6053 85.2392 29.7386 85.8365 29.7386ZM93.2403 22.2506H94.3763V30.6666H93.2403V22.2506ZM93.8163 20.4106C93.5816 20.4106 93.3843 20.3306 93.2243 20.1706C93.0643 20.0106 92.9843 19.8186 92.9843 19.5946C92.9843 19.3813 93.0643 19.1946 93.2243 19.0346C93.3843 18.8746 93.5816 18.7946 93.8163 18.7946C94.0509 18.7946 94.2483 18.8746 94.4083 19.0346C94.5683 19.184 94.6483 19.3653 94.6483 19.5786C94.6483 19.8133 94.5683 20.0106 94.4083 20.1706C94.2483 20.3306 94.0509 20.4106 93.8163 20.4106ZM101.825 22.1866C102.881 22.1866 103.718 22.496 104.337 23.1146C104.966 23.7226 105.281 24.6133 105.281 25.7866V30.6666H104.145V25.8986C104.145 25.024 103.926 24.3573 103.489 23.8986C103.052 23.44 102.428 23.2106 101.617 23.2106C100.71 23.2106 99.9905 23.4826 99.4571 24.0266C98.9345 24.56 98.6731 25.3013 98.6731 26.2506V30.6666H97.5371V22.2506H98.6251V23.8026C98.9345 23.2906 99.3611 22.896 99.9051 22.6186C100.46 22.3306 101.1 22.1866 101.825 22.1866ZM116.189 22.2506V29.6426C116.189 31.072 115.837 32.128 115.133 32.8106C114.439 33.504 113.389 33.8506 111.981 33.8506C111.202 33.8506 110.461 33.7333 109.757 33.4986C109.063 33.2746 108.498 32.96 108.061 32.5546L108.637 31.6906C109.042 32.0533 109.533 32.336 110.109 32.5386C110.695 32.7413 111.309 32.8426 111.949 32.8426C113.015 32.8426 113.799 32.592 114.301 32.0906C114.802 31.6 115.053 30.832 115.053 29.7866V28.7146C114.701 29.248 114.237 29.6533 113.661 29.9306C113.095 30.208 112.466 30.3466 111.773 30.3466C110.983 30.3466 110.263 30.176 109.613 29.8346C108.973 29.4826 108.466 28.9973 108.093 28.3786C107.73 27.7493 107.549 27.04 107.549 26.2506C107.549 25.4613 107.73 24.7573 108.093 24.1386C108.466 23.52 108.973 23.04 109.613 22.6986C110.253 22.3573 110.973 22.1866 111.773 22.1866C112.487 22.1866 113.133 22.3306 113.709 22.6186C114.285 22.9066 114.749 23.3226 115.101 23.8666V22.2506H116.189ZM111.885 29.3386C112.493 29.3386 113.042 29.2106 113.533 28.9546C114.023 28.688 114.402 28.32 114.669 27.8506C114.946 27.3813 115.085 26.848 115.085 26.2506C115.085 25.6533 114.946 25.1253 114.669 24.6666C114.402 24.1973 114.023 23.8346 113.533 23.5786C113.053 23.312 112.503 23.1786 111.885 23.1786C111.277 23.1786 110.727 23.3066 110.237 23.5626C109.757 23.8186 109.378 24.1813 109.101 24.6506C108.834 25.12 108.701 25.6533 108.701 26.2506C108.701 26.848 108.834 27.3813 109.101 27.8506C109.378 28.32 109.757 28.688 110.237 28.9546C110.727 29.2106 111.277 29.3386 111.885 29.3386ZM130.849 24.8906C131.585 25.0506 132.15 25.3706 132.545 25.8506C132.95 26.32 133.153 26.928 133.153 27.6746C133.153 28.6346 132.795 29.376 132.081 29.8986C131.377 30.4106 130.331 30.6666 128.945 30.6666H123.793V19.4666H128.625C129.873 19.4666 130.838 19.7173 131.521 20.2186C132.214 20.72 132.561 21.4293 132.561 22.3466C132.561 22.9653 132.406 23.4933 132.097 23.9306C131.798 24.3573 131.382 24.6773 130.849 24.8906ZM124.977 20.4426V24.5066H128.545C129.451 24.5066 130.15 24.336 130.641 23.9946C131.131 23.6426 131.377 23.136 131.377 22.4746C131.377 21.8133 131.131 21.312 130.641 20.9706C130.15 20.6186 129.451 20.4426 128.545 20.4426H124.977ZM128.929 29.6906C129.931 29.6906 130.689 29.52 131.201 29.1786C131.713 28.8373 131.969 28.304 131.969 27.5786C131.969 26.1813 130.955 25.4826 128.929 25.4826H124.977V29.6906H128.929ZM138.559 22.1866C139.658 22.1866 140.501 22.464 141.087 23.0186C141.674 23.5626 141.967 24.3733 141.967 25.4506V30.6666H140.879V29.3546C140.623 29.792 140.245 30.1333 139.743 30.3786C139.253 30.624 138.666 30.7466 137.983 30.7466C137.045 30.7466 136.298 30.5226 135.743 30.0746C135.189 29.6266 134.911 29.0346 134.911 28.2986C134.911 27.584 135.167 27.008 135.679 26.5706C136.202 26.1333 137.029 25.9146 138.159 25.9146H140.831V25.4026C140.831 24.6773 140.629 24.128 140.223 23.7546C139.818 23.3706 139.226 23.1786 138.447 23.1786C137.914 23.1786 137.402 23.2693 136.911 23.4506C136.421 23.6213 135.999 23.8613 135.647 24.1706L135.135 23.3226C135.562 22.96 136.074 22.6826 136.671 22.4906C137.269 22.288 137.898 22.1866 138.559 22.1866ZM138.159 29.8506C138.799 29.8506 139.349 29.7066 139.807 29.4186C140.266 29.12 140.607 28.6933 140.831 28.1386V26.7626H138.191C136.751 26.7626 136.031 27.264 136.031 28.2666C136.031 28.7573 136.218 29.1466 136.591 29.4346C136.965 29.712 137.487 29.8506 138.159 29.8506ZM145.053 22.2506H146.189V30.6666H145.053V22.2506ZM145.629 20.4106C145.394 20.4106 145.197 20.3306 145.037 20.1706C144.877 20.0106 144.797 19.8186 144.797 19.5946C144.797 19.3813 144.877 19.1946 145.037 19.0346C145.197 18.8746 145.394 18.7946 145.629 18.7946C145.863 18.7946 146.061 18.8746 146.221 19.0346C146.381 19.184 146.461 19.3653 146.461 19.5786C146.461 19.8133 146.381 20.0106 146.221 20.1706C146.061 20.3306 145.863 20.4106 145.629 20.4106ZM149.59 19.4666H150.774V30.6666H149.59V19.4666ZM161.506 26.8106H154.466C154.53 27.6853 154.866 28.3946 155.474 28.9386C156.082 29.472 156.85 29.7386 157.778 29.7386C158.3 29.7386 158.78 29.648 159.218 29.4666C159.655 29.2746 160.034 28.9973 160.354 28.6346L160.994 29.3706C160.62 29.8186 160.151 30.16 159.586 30.3946C159.031 30.6293 158.418 30.7466 157.746 30.7466C156.882 30.7466 156.114 30.5653 155.442 30.2026C154.78 29.8293 154.263 29.3173 153.89 28.6666C153.516 28.016 153.33 27.28 153.33 26.4586C153.33 25.6373 153.506 24.9013 153.858 24.2506C154.22 23.6 154.711 23.0933 155.33 22.7306C155.959 22.368 156.663 22.1866 157.442 22.1866C158.22 22.1866 158.919 22.368 159.538 22.7306C160.156 23.0933 160.642 23.6 160.994 24.2506C161.346 24.8906 161.522 25.6266 161.522 26.4586L161.506 26.8106ZM157.442 23.1626C156.631 23.1626 155.948 23.424 155.394 23.9466C154.85 24.4586 154.54 25.1306 154.466 25.9626H160.434C160.359 25.1306 160.044 24.4586 159.49 23.9466C158.946 23.424 158.263 23.1626 157.442 23.1626ZM170.75 22.2506L166.542 31.6746C166.2 32.464 165.806 33.024 165.358 33.3546C164.91 33.6853 164.371 33.8506 163.742 33.8506C163.336 33.8506 162.958 33.7866 162.606 33.6586C162.254 33.5306 161.95 33.3386 161.694 33.0826L162.222 32.2346C162.648 32.6613 163.16 32.8746 163.758 32.8746C164.142 32.8746 164.467 32.768 164.734 32.5546C165.011 32.3413 165.267 31.9786 165.502 31.4666L165.87 30.6506L162.11 22.2506H163.294L166.462 29.4026L169.63 22.2506H170.75Z" fill="#333333"/>
<path d="M17.501 28.6564V34.1579L29.9998 28.5851V23.0842L17.501 28.6564Z" fill="#333333"/>
<path d="M23.096 18.0311L29.2631 15.2803L17.501 10.035V15.5365L23.096 18.0311Z" fill="#333333"/>
<path d="M12.6436 19.6737V25.1769L17.501 27.3423V21.8415L12.6436 19.6737Z" fill="#333333"/>
<path d="M29.9998 16.2664L17.501 21.8415V27.3423L29.9998 21.7694V16.2664Z" fill="#333333"/>
<path d="M5.74414 15.2771L11.8743 18.044L17.5008 15.5365V10.035L5.74414 15.2771Z" fill="#333333"/>
<path d="M11.1692 25.8344V19.0138L5 16.2639V28.585L17.5009 34.1579V28.6563L11.1692 25.8344Z" fill="#333333"/>
</svg>
