<svg width="1600" height="1200" xmlns="http://www.w3.org/2000/svg"><g transform="translate(0 -106)" stroke-width="13" fill="none" fill-rule="evenodd" stroke-linecap="round" stroke-linejoin="round"><path d="M1600 999c0 32.033-25.743 58-57.5 58s-57.5-25.967-57.5-58" stroke="#44AB96"/><path d="M1600 155c-39.768 0-72-32.46-72-72.5s32.232-72.5 72-72.5" stroke="#E53855"/><path d="M562 68.906C562 102.095 588.863 129 622 129s60-26.905 60-60.094V1" stroke="#44AB96"/><path d="M137.235 1412C62.547 1412 2 1351.787 2 1277.5S62.547 1143 137.235 1143H261" stroke="#FFB017"/><path d="M128.98 1320c-24.842 0-44.98-19.474-44.98-43.5s20.138-43.5 44.98-43.5H177" stroke="#44AB96"/><path d="M1600 462V293.68c0-32.96-26.868-59.68-60-59.68-33.132 0-60 26.72-60 59.68v26.054M673 965.536H493.563c-45.228 0-81.894 36.471-81.894 81.46s36.666 81.46 81.894 81.46h74.06M366.84 1412h-10.697c-31.559 0-57.143-25.618-57.143-57.204 0-31.598 25.584-57.216 57.143-57.216h127.58c46.63 0 84.432-37.843 84.432-84.53M389.762 588v64.285c0 78.304 63.404 141.781 141.618 141.781h56.407c47.061 0 85.213 38.195 85.213 85.31" stroke="#DA774A"/><circle stroke="#44AB96" cx="588" cy="393" r="40"/><ellipse stroke="#E53855" cx="698" cy="1195.5" rx="58" ry="57.5"/><circle stroke="#44AB96" cx="184" cy="257" r="63"/><path d="M184.5 394c77.595 0 140.5-62.008 140.5-138.5 0-76.492-62.905-138.5-140.5-138.5S44 179.008 44 255.5" stroke="#FFB017"/><path d="M1311.21 1224.457c-21.346 79.815 24.832 161.556 103.136 182.581 78.305 21.014 159.098-26.649 180.444-106.463 21.346-79.815-24.832-161.552-103.136-182.575" stroke="#44AB96"/><path d="M481.83 1213c-84.957 0-153.83-75.435-153.83-168.488 0-32.311 8.304-62.5 22.703-88.142M587 875H482.203c-33.533 0-64.564 11.601-89.845 31.296" stroke="#DA774A"/><path d="M328.5 414c-31.757 0-57.5 25.743-57.5 57.5s25.743 57.5 57.5 57.5 57.5-25.743 57.5-57.5V414" stroke="#44AB96"/><path d="M346 77.5c0 42.25 34.026 76.5 76 76.5s76-34.25 76-76.5S463.974 1 422 1h-76" stroke="#E53855"/><path d="M71.5 866.582c-36.727 0-66.5-29.455-66.5-65.79C5 764.454 34.773 735 71.5 735c36.727 0 66.5 29.455 66.5 65.791V1002M1461.988 870c0 33.689 26.872 61 60.012 61s60-27.311 60-61-26.86-61-60-61h-201" stroke="#44AB96"/><path d="M966 139.79c-35.346 0-64 28.253-64 63.105S930.654 266 966 266c35.346 0 64-28.253 64-63.105V0" stroke="#4484AB"/><path d="M914.919 1354c0-32.033 25.762-58 57.54-58 31.78 0 57.541 25.967 57.541 58s-25.761 58-57.54 58H881" stroke="#44AB96"/><path d="M1089.5 562.578c31.757 0 57.5 25.613 57.5 57.21 0 31.598-25.743 57.212-57.5 57.212s-57.5-25.614-57.5-57.211V406M62.5 568.708c-31.756 0-57.5 25.36-57.5 56.646C5 656.639 30.744 682 62.5 682s57.5-25.36 57.5-56.646V394" stroke="#DA774A"/><path d="M688.704 394c0-56.885-45.377-103-101.352-103S486 337.115 486 394s45.377 103 101.352 103H853" stroke="#FFB017"/><path d="M1498.643 727C1554.63 727 1600 680.885 1600 624s-45.371-103-101.357-103H1233" stroke="#44AB96"/><path d="M1107 175.5c0-53.296 42.74-96.5 95.462-96.5h98.076c52.727 0 95.462 43.204 95.462 96.5h0c0 53.296-42.735 96.5-95.462 96.5h-98.076c-52.723 0-95.462-43.204-95.462-96.5h0Z" stroke="#DA774A"/><path d="M266.5 871c-32.86 0-59.5-26.594-59.5-59.4V642.4c0-32.806 26.64-59.4 59.5-59.4h0c32.86 0 59.5 26.594 59.5 59.4v169.2c0 32.806-26.64 59.4-59.5 59.4h0Z" stroke="#FFB017"/><path d="M828 795.5v-89.334C828 680.669 848.819 660 874.5 660h0c25.681 0 46.5 20.67 46.5 46.166v178.668C921 910.331 900.181 931 874.5 931h0c-25.681 0-46.5-20.67-46.5-46.166V863.25" stroke="#E53855"/><path d="M914 317.93v7.789C914 370.057 877.959 406 833.5 406h0c-44.459 0-80.5-35.943-80.5-80.281V81.28C753 36.943 789.041 1 833.5 1h0C877.959 1 914 36.943 914 81.281v2.397M71.75 952h-4.81C32.73 952 5 979.758 5 1014h0c0 34.242 27.731 62 61.94 62h143.12c34.21 0 61.94-27.758 61.94-62h0c0-34.242-27.73-62-61.94-62h-4.81" stroke="#FFB017"/><path d="M751 660v231.637C751 960.873 807.636 1017 877.5 1017S1004 960.873 1004 891.637v-54.728M497 1052h207.802C783.888 1052 848 1116.471 848 1196c0 79.524-64.112 144-143.198 144h-62.514" stroke="#44AB96"/><path d="M586 701h-49.187C503.78 701 477 674.137 477 641s26.78-60 59.813-60h98.374C668.22 581 695 607.863 695 641v5.33c0 30.194-24.4 54.67-54.5 54.67" stroke="#4484AB"/><path d="M1089.5 472h56.181c37.73 0 68.319-28.878 68.319-64.5s-30.59-64.5-68.319-64.5H1033.32C995.587 343 965 371.878 965 407.5M675 203H540.319C455.09 203 386 272.396 386 358" stroke="#44AB96"/><path d="M1449.5 1206.84c31.757 0 57.5 25.56 57.5 57.08s-25.743 57.08-57.5 57.08-57.5-25.56-57.5-57.08V892" stroke="#E53855"/><path d="M1019 1244c0-58.54 46.847-106 104.635-106H1308" stroke="#44AB96"/><path d="M747 581h98.373C911.441 581 965 527.274 965 461M1321 894v53.755c0 54.259-44.002 98.245-98.288 98.245H1146" stroke="#4484AB"/><path d="M1507 626h-84.007C1362.243 626 1313 675.697 1313 737" stroke="#DA774A"/><path d="M218 1412v-91.118c0-52.464 40.975-96.412 96-107.882M44.5 326v184M1088.5 749v152M934.5 1162v62" stroke="#44AB96"/><path d="M1233 587v142.33c0 22.396-18.295 40.536-40.865 40.536s-40.865 18.155-40.865 40.551v8.411c0 22.395 18.296 40.551 40.865 40.551 22.57 0 40.865 18.155 40.865 40.552v9.311c0 27.54-22.497 49.863-50.249 49.863h-64.172M954 1092h26.776c55.33 0 100.185-44.799 100.185-100.062" stroke="#FFB017"/><path d="M1481 389.92v20.283c0 28.607-23.263 51.797-51.943 51.797h0c-28.69 0-51.954-23.19-51.954-51.797v-16.8c0-28.39-23.083-51.403-51.546-51.403h0c-28.474 0-51.557 23.014-51.557 51.403v20.676" stroke="#E53855"/><path d="M1089 1285.967c0-40.295 32.683-72.967 73-72.967h0c40.313 0 73 32.672 73 72.967v53.066c0 40.295-32.687 72.967-73 72.967h0c-40.317 0-73-32.672-73-72.967v-53.066Z" stroke="#4484AB"/></g></svg>